<svg xmlns="http://www.w3.org/2000/svg" viewBox="0 0 50 50">
  <path d="M25 2C12.309295 2 2 12.309295 2 25C2 37.690705 12.309295 48 25 48C37.690705 48 48 37.690705 48 25C48 12.309295 37.690705 2 25 2 z M 25 4C36.609824 4 46 13.390176 46 25C46 36.609824 36.609824 46 25 46C13.390176 46 4 36.609824 4 25C4 13.390176 13.390176 4 25 4 z M 25 7C15.07058 7 7 15.07058 7 25C7 34.92942 15.07058 43 25 43C28.495217 43 31.765776 42.001432 34.529297 40.273438 A 1.0001666 1.0001666 0 0 0 33.470703 38.576172C31.014224 40.112177 28.114783 41 25 41C16.15142 41 9 33.84858 9 25C9 16.15142 16.15142 9 25 9C33.84858 9 41 16.15142 41 25C41 30.444444 36.466667 34 32 34C30.341667 34 29.79961 33.34756 29.462891 32.367188C29.138232 31.421931 29.252321 30.108847 29.542969 29.294922L34.923828 16.384766 A 1.0001 1.0001 0 0 0 33.984375 14.986328 A 1.0001 1.0001 0 0 0 33.076172 15.615234L32.244141 17.613281C31.758892 16.685918 31.123118 15.931244 30.345703 15.373047C28.944073 14.366653 27.192697 14 25.287109 14C22.981909 14 20.26538 15.384509 18.005859 17.851562C15.746339 20.318616 14 23.939425 14 28.476562C14 30.490505 14.605189 32.361132 15.798828 33.75C16.992467 35.138868 18.788968 36 20.914062 36C23.352552 36 25.171204 35.127741 26.449219 33.951172C26.851532 33.580794 27.190584 33.183427 27.503906 32.779297C27.527231 32.857896 27.543477 32.937493 27.570312 33.015625C28.115344 34.602503 29.658333 36 32 36C37.533333 36 43 31.555556 43 25C43 15.07058 34.92942 7 25 7 z M 25.287109 16C26.935522 16 28.236317 16.318738 29.179688 16.996094C30.089214 17.649149 30.748458 18.671521 31.095703 20.369141L27.802734 28.271484L27.800781 28.275391 A 1.0001 1.0001 0 0 0 27.710938 28.466797C27.700241 28.494085 27.694001 28.527004 27.683594 28.554688L27.453125 29.109375 A 1.0001 1.0001 0 0 0 27.371094 29.238281C26.748153 30.376846 26.066438 31.584835 25.095703 32.478516C24.124968 33.372196 22.900575 34 20.914062 34C19.306157 34 18.146517 33.413148 17.316406 32.447266C16.486295 31.481384 16 30.089621 16 28.476562C16 24.4497 17.531193 21.333571 19.482422 19.203125C21.433651 17.072679 23.859309 16 25.287109 16 z" fill="#FFFFFF" />
</svg>