<svg xmlns="http://www.w3.org/2000/svg" viewBox="0 0 50 50">
  <path d="M25 3C12.861562 3 3 12.861562 3 25C3 36.019135 11.127533 45.138355 21.712891 46.728516L22.861328 46.902344L22.861328 29.566406L17.664062 29.566406L17.664062 26.046875L22.861328 26.046875L22.861328 21.373047C22.861328 18.494965 23.551973 16.599417 24.695312 15.410156C25.838652 14.220896 27.528004 13.621094 29.878906 13.621094C31.758714 13.621094 32.490022 13.734993 33.185547 13.820312L33.185547 16.701172L30.738281 16.701172C29.349697 16.701172 28.210449 17.475903 27.619141 18.507812C27.027832 19.539724 26.84375 20.771816 26.84375 22.027344L26.84375 26.044922L32.966797 26.044922L32.421875 29.564453L26.84375 29.564453L26.84375 46.929688L27.978516 46.775391C38.71434 45.319366 47 36.126845 47 25C47 12.861562 37.138438 3 25 3 z M 25 5C36.057562 5 45 13.942438 45 25C45 34.729791 38.035799 42.731796 28.84375 44.533203L28.84375 31.564453L34.136719 31.564453L35.298828 24.044922L28.84375 24.044922L28.84375 22.027344C28.84375 20.989871 29.033574 20.060293 29.353516 19.501953C29.673457 18.943614 29.981865 18.701172 30.738281 18.701172L35.185547 18.701172L35.185547 12.009766L34.318359 11.892578C33.718567 11.811418 32.349197 11.621094 29.878906 11.621094C27.175808 11.621094 24.855567 12.357448 23.253906 14.023438C21.652246 15.689426 20.861328 18.170128 20.861328 21.373047L20.861328 24.046875L15.664062 24.046875L15.664062 31.566406L20.861328 31.566406L20.861328 44.470703C11.816995 42.554813 5 34.624447 5 25C5 13.942438 13.942438 5 25 5 z" fill="#FFFFFF" />
</svg>