<?xml version="1.0" encoding="utf-8"?>
<svg xmlns="http://www.w3.org/2000/svg" viewBox="0 0 50 50" width="100" height="100">
  <path d="M27 4C22.3 4 18.590781 5.7196094 16.550781 8.8496094C14.830781 11.499609 14.540469 14.910078 15.730469 18.080078C15.350469 18.620078 15.019375 19.439062 15.109375 20.539062C15.399375 22.699063 16.230391 23.589219 16.900391 23.949219C17.230391 25.749219 18.209609 27.650547 19.099609 28.560547C19.079609 29.320547 19.040234 29.869844 18.990234 30.589844C18.980234 30.689844 18.970703 30.790391 18.970703 30.900391L18.900391 30.900391C18.720391 30.900391 18.550625 30.949062 18.390625 31.039062C18.320625 31.079062 16.670781 32.059766 15.300781 34.009766C8.9307813 35.469766 5 40.79 5 45C5 45.55 5.45 46 6 46L22.662109 46 A 1.0001 1.0001 0 0 0 23.162109 46L26 46L26 45L26 44L26 35C26 34.7 26.029844 34.410625 26.089844 34.140625L26 34L24.228516 34C24.105225 33.97103 23.313118 33.780781 22.480469 33.384766C22.030842 33.170917 21.605171 32.900811 21.34375 32.642578C21.082329 32.384345 21 32.199603 21 32 A 1.0001 1.0001 0 0 0 20.923828 31.605469C20.944491 31.302355 20.966293 30.9954 20.980469 30.740234C21.050469 29.880234 21.099609 29.189609 21.099609 28.099609C21.099609 27.769609 20.879375 27.430234 20.609375 27.240234C20.219375 26.970234 18.970781 24.969375 18.800781 23.109375C18.750781 22.589375 18.389141 22.210937 17.869141 22.210938C17.729141 22.150938 17.279609 21.680313 17.099609 20.320312C17.089609 20.260313 17.089844 20.200625 17.089844 20.140625C17.089844 19.430625 17.460938 19.130859 17.460938 19.130859C17.860937 18.860859 18.010547 18.340391 17.810547 17.900391C16.610547 15.170391 16.760469 12.199219 18.230469 9.9492188C19.800469 7.5292188 22.680625 6.1497656 26.390625 6.0097656L27.109375 7.4492188C27.269375 7.7892187 27.62 8 28 8C29.88 8 31.269141 8.8901563 32.119141 10.660156C33.359141 13.200156 33.030937 16.729297 32.210938 17.779297C32.000937 18.059297 31.940547 18.42 32.060547 18.75C32.170547 19.03 32.390156 19.239844 32.660156 19.339844C32.730156 19.459844 32.850781 19.800156 32.800781 20.410156C32.670781 21.890156 32.199609 22.280781 32.099609 22.300781C31.599609 22.300781 31.179375 22.660391 31.109375 23.150391C30.829375 24.990391 29.690781 27.050078 29.300781 27.330078C28.990781 27.510078 28.800781 27.839219 28.800781 28.199219C28.800781 29.229219 28.849922 29.949609 28.919922 30.849609C28.929922 30.949609 28.929453 31.040391 28.939453 31.150391C29.279453 31.050391 29.63 31 30 31L30.929688 31C30.929688 30.9 30.920156 30.800938 30.910156 30.710938C30.860156 29.950937 30.820781 29.380391 30.800781 28.650391C31.690781 27.700391 32.590937 25.709609 32.960938 24.099609C33.680937 23.759609 34.590781 22.880078 34.800781 20.580078C34.880781 19.590078 34.689062 18.740156 34.289062 18.160156C35.189062 16.120156 35.269922 12.539297 33.919922 9.7792969C32.829922 7.5392969 30.970859 6.2292969 28.630859 6.0292969L27.890625 4.5507812C27.730625 4.2107813 27.38 4 27 4 z M 37 29C35.906937 29 35 29.906937 35 31L35 33L30 33C28.906937 33 28 33.906937 28 35L28 37L28 41L28 48C28 49.093063 28.906937 50 30 50L48 50C49.093063 50 50 49.093063 50 48L50 35C50 33.906937 49.093063 33 48 33L43 33L43 31C43 29.906937 42.093063 29 41 29L37 29 z M 37 31L41 31L41 33L37 33L37 31 z M 18.251953 33.667969C18.361269 34.130684 18.487966 34.614473 18.646484 35.185547C19.018978 36.527479 19.50982 38.095694 20 39.597656C20.604484 41.449859 21.116074 42.930571 21.490234 44L18.480469 44L15.441406 40.201172L17.380859 38.814453 A 1.0001 1.0001 0 0 0 17.765625 37.742188L17.044922 35.033203C17.453297 34.48025 17.869398 34.018122 18.251953 33.667969 z M 20.53125 34.462891C20.892543 34.724247 21.248597 35.014243 21.621094 35.191406C22.165247 35.450211 22.691905 35.633735 23.105469 35.761719L24 38L22.886719 41.900391C22.577003 40.996349 22.258645 40.074293 21.900391 38.976562C21.415571 37.491025 20.931022 35.942833 20.572266 34.650391C20.546876 34.558901 20.55518 34.552591 20.53125 34.462891 z M 30 35L35 35L43 35L48 35L48 41C48 41.56503 47.56503 42 47 42L42 42L42 41C42 39.906937 41.093063 39 40 39L38 39C36.906937 39 36 39.906937 36 41L36 42L31 42C30.43497 42 30 41.56503 30 41L30 37L30 35 z M 15.253906 36.082031L15.65625 37.587891L13.417969 39.185547 A 1.0001 1.0001 0 0 0 13.21875 40.625L15.917969 44L7.0898438 44C7.6276408 40.877003 10.632711 37.329925 15.253906 36.082031 z M 38 41L40 41L40 42L38 42L38 41 z M 30 43.8125C30.314892 43.92606 30.648157 44 31 44L47 44C47.351843 44 47.685108 43.92606 48 43.8125L48 48L30 48L30 43.8125 z" fill="#1F4183" />
</svg>