<svg xmlns="http://www.w3.org/2000/svg" viewBox="0 0 50 50">
  <path d="M25 2C12.309295 2 2 12.309295 2 25C2 37.690705 12.309295 48 25 48C37.690705 48 48 37.690705 48 25C48 12.309295 37.690705 2 25 2 z M 25 4C36.609824 4 46 13.390176 46 25C46 36.609824 36.609824 46 25 46C13.390176 46 4 36.609824 4 25C4 13.390176 13.390176 4 25 4 z M 16 12C14.35499 12 13 13.35499 13 15C13 16.64501 14.35499 18 16 18C17.64501 18 19 16.64501 19 15C19 13.35499 17.64501 12 16 12 z M 16 14C16.564129 14 17 14.435871 17 15C17 15.564129 16.564129 16 16 16C15.435871 16 15 15.564129 15 15C15 14.435871 15.435871 14 16 14 z M 14 19 A 1.0001 1.0001 0 0 0 13 20L13 35 A 1.0001 1.0001 0 0 0 14 36L18 36 A 1.0001 1.0001 0 0 0 19 35L19 20 A 1.0001 1.0001 0 0 0 18 19L14 19 z M 22 19 A 1.0001 1.0001 0 0 0 21 20L21 35 A 1.0001 1.0001 0 0 0 22 36L26 36 A 1.0001 1.0001 0 0 0 27 35L27 27.5C27 26.120455 28.120455 25 29.5 25C30.879545 25 32 26.120455 32 27.5L32 30L32 35 A 1.0001 1.0001 0 0 0 33 36L37 36 A 1.0001 1.0001 0 0 0 38 35L38 26.5C38 22.36961 34.63039 19 30.5 19C29.213528 19 28.059744 19.41615 27 19.990234 A 1.0001 1.0001 0 0 0 26 19L22 19 z M 15 21L17 21L17 34L15 34L15 21 z M 23 21L25 21L25 21.816406 A 1.0001 1.0001 0 0 0 26.693359 22.537109C27.684186 21.585305 29.016683 21 30.5 21C33.54961 21 36 23.45039 36 26.5L36 34L34 34L34 30L34 27.5C34 25.029545 31.970455 23 29.5 23C27.029545 23 25 25.029545 25 27.5L25 34L23 34L23 21 z" fill="#FFFFFF" />
</svg>