<svg xmlns="http://www.w3.org/2000/svg" viewBox="0 0 50 50">
  <path d="M6 0C4.355469 0 3 1.355469 3 3L3 11C3 13.082031 3.28125 14.449219 3.53125 15.8125C3.78125 17.175781 4 18.566406 4 21C4 23.433594 3.773438 24.242188 3.53125 25.09375C3.289063 25.945313 3 26.917969 3 29L3 38C3 39.644531 4.355469 41 6 41L11 41L11 42C11 46.40625 14.59375 50 19 50L20 50C24.40625 50 28 46.40625 28 42L28 41L43 41C43.730469 41 44.328125 40.640625 44.96875 39.96875C45.609375 39.296875 46.253906 38.277344 46.84375 36.75C48.027344 33.695313 49 28.578125 49 20C49 11.421875 48.042969 6.582031 46.84375 3.75C45.644531 0.917969 44.15625 0 43 0L23 0C21.355469 0 20 1.355469 20 3L20 38C20 39.644531 21.355469 41 23 41L26 41L26 42C26 45.324219 23.324219 48 20 48L19 48C15.675781 48 13 45.324219 13 42L13 41L16 41C17.644531 41 19 39.644531 19 38L19 29C19 26.917969 18.710938 25.945313 18.46875 25.09375C18.226563 24.242188 18 23.433594 18 21C18 18.566406 18.21875 17.175781 18.46875 15.8125C18.71875 14.449219 19 13.082031 19 11L19 3C19 1.355469 17.644531 0 16 0 Z M 6 2L16 2C16.5625 2 17 2.4375 17 3L17 11C17 12.917969 16.78125 14.050781 16.53125 15.4375C16.28125 16.824219 16 18.433594 16 21C16 23.566406 16.273438 24.757813 16.53125 25.65625C16.789063 26.554688 17 27.082031 17 29L17 38C17 38.5625 16.5625 39 16 39L12.1875 39C12.054688 38.972656 11.914063 38.972656 11.78125 39L6 39C5.4375 39 5 38.5625 5 38L5 29C5 27.082031 5.210938 26.554688 5.46875 25.65625C5.726563 24.757813 6 23.566406 6 21C6 18.433594 5.71875 16.824219 5.46875 15.4375C5.21875 14.050781 5 12.917969 5 11L5 3C5 2.4375 5.4375 2 6 2 Z M 23 2L43 2C42.949219 2 43.976563 2.082031 45 4.5C46.023438 6.917969 47 11.578125 47 20C47 28.421875 46.011719 33.304688 44.96875 36C44.449219 37.347656 43.933594 38.140625 43.53125 38.5625C43.230469 38.878906 42.96875 38.976563 42.9375 39L23 39C22.4375 39 22 38.5625 22 38L22 3C22 2.4375 22.4375 2 23 2 Z M 26.8125 5C26.335938 5.089844 25.992188 5.511719 26 6L26 14C26 14.550781 26.449219 15 27 15L41 15C41.550781 15 42 14.550781 42 14L42 6C42 5.449219 41.550781 5 41 5L27 5C26.96875 5 26.9375 5 26.90625 5C26.875 5 26.84375 5 26.8125 5 Z M 28 7L40 7L40 13L28 13 Z M 27 17C26.445313 17 26 17.445313 26 18L26 20C26 20.554688 26.445313 21 27 21L29 21C29.554688 21 30 20.554688 30 20L30 18C30 17.445313 29.554688 17 29 17 Z M 33 17C32.445313 17 32 17.445313 32 18L32 20C32 20.554688 32.445313 21 33 21L35 21C35.554688 21 36 20.554688 36 20L36 18C36 17.445313 35.554688 17 35 17 Z M 39 17C38.445313 17 38 17.445313 38 18L38 20C38 20.554688 38.445313 21 39 21L41 21C41.554688 21 42 20.554688 42 20L42 18C42 17.445313 41.554688 17 41 17 Z M 27 23C26.445313 23 26 23.445313 26 24L26 26C26 26.554688 26.445313 27 27 27L29 27C29.554688 27 30 26.554688 30 26L30 24C30 23.445313 29.554688 23 29 23 Z M 33 23C32.445313 23 32 23.445313 32 24L32 26C32 26.554688 32.445313 27 33 27L35 27C35.554688 27 36 26.554688 36 26L36 24C36 23.445313 35.554688 23 35 23 Z M 39 23C38.445313 23 38 23.445313 38 24L38 26C38 26.554688 38.445313 27 39 27L41 27C41.554688 27 42 26.554688 42 26L42 24C42 23.445313 41.554688 23 41 23 Z M 27 29C26.445313 29 26 29.445313 26 30L26 32C26 32.554688 26.445313 33 27 33L29 33C29.554688 33 30 32.554688 30 32L30 30C30 29.445313 29.554688 29 29 29 Z M 33 29C32.445313 29 32 29.445313 32 30L32 32C32 32.554688 32.445313 33 33 33L35 33C35.554688 33 36 32.554688 36 32L36 30C36 29.445313 35.554688 29 35 29 Z M 39 29C38.445313 29 38 29.445313 38 30L38 32C38 32.554688 38.445313 33 39 33L41 33C41.554688 33 42 32.554688 42 32L42 30C42 29.445313 41.554688 29 41 29Z" fill="#FFFFFF" />
</svg>