<?xml version="1.0" encoding="utf-8"?>
<svg xmlns="http://www.w3.org/2000/svg" viewBox="0 0 50 50" width="100" height="100">
  <path d="M32.21875 2.0625L31.4375 2.375L28.625 3.46875L27.84375 3.78125L28.03125 4.59375L28.625 7.59375C28.332031 7.886719 28.019531 8.230469 27.6875 8.59375L24.71875 7.9375L23.90625 7.75L23.59375 8.5L22.375 11.3125L22.0625 12.0625L22.75 12.53125L25.3125 14.25C25.28125 14.738281 25.285156 15.230469 25.3125 15.71875L22.6875 17.34375L21.96875 17.78125L22.28125 18.5625L23.375 21.375L23.6875 22.15625L24.5 21.96875L27.5 21.375C27.804688 21.738281 28.140625 22.066406 28.5 22.375L27.8125 25.375L27.625 26.1875L28.40625 26.53125L31.21875 27.71875L31.96875 28.03125L32.4375 27.34375L34.15625 24.78125C34.644531 24.8125 35.136719 24.808594 35.625 24.78125L37.25 27.4375L37.6875 28.125L38.46875 27.84375L42.0625 26.40625L41.875 25.59375L41.1875 22.3125C41.5625 21.996094 41.902344 21.65625 42.21875 21.28125L45.25 22.0625L46.09375 22.28125L46.40625 21.5L47.625 18.6875L47.96875 17.90625L47.21875 17.4375L44.59375 15.84375C44.625 15.355469 44.621094 14.863281 44.59375 14.375L47.21875 12.75L47.9375 12.3125L47.625 11.53125L46.53125 8.71875L46.21875 7.9375L45.375 8.125L42.3125 8.8125C42.007813 8.449219 41.671875 8.121094 41.3125 7.8125L41.96875 4.8125L42.15625 4L41.40625 3.6875L38.59375 2.46875L37.8125 2.15625L37.34375 2.875L35.75 5.40625C35.289063 5.359375 34.789063 5.402344 34.28125 5.4375L32.65625 2.78125 Z M 31.375 4.53125L32.84375 6.9375L33.21875 7.53125L33.90625 7.375C34.613281 7.21875 35.28125 7.304688 36.1875 7.40625L36.8125 7.46875L37.15625 6.9375L38.59375 4.65625L39.84375 5.1875L39.21875 7.875L39.0625 8.53125L39.625 8.90625C40.238281 9.34375 40.75 9.855469 41.1875 10.46875L41.5625 11.03125L42.21875 10.875L44.96875 10.25L45.46875 11.5L43.0625 12.9375L42.53125 13.28125L42.59375 13.90625C42.6875 14.742188 42.6875 15.445313 42.59375 16.28125L42.53125 16.90625L43.0625 17.25L45.4375 18.71875L44.9375 19.90625L42.15625 19.21875L41.46875 19.0625L41.09375 19.625C40.65625 20.238281 40.144531 20.75 39.53125 21.1875L39 21.5625L39.125 22.21875L39.75 25.1875L38.5 25.65625L37.0625 23.28125L36.71875 22.75L36.09375 22.8125C35.257813 22.90625 34.554688 22.90625 33.71875 22.8125L33.09375 22.75L32.78125 23.25L31.25 25.5625L29.96875 25L30.5625 22.3125L30.71875 21.6875L30.1875 21.28125C29.574219 20.84375 29.0625 20.332031 28.625 19.71875L28.25 19.1875L27.59375 19.3125L24.90625 19.875L24.4375 18.625L26.8125 17.15625L27.375 16.8125L27.28125 16.1875C27.1875 15.351563 27.1875 14.648438 27.28125 13.8125L27.375 13.21875L26.84375 12.875L24.53125 11.34375L25.0625 10.0625L27.78125 10.6875L28.375 10.8125L28.75 10.34375C29.320313 9.679688 29.90625 9.09375 30.40625 8.59375L30.78125 8.21875L30.6875 7.71875L30.125 5.03125 Z M 35 10C32.25 10 30 12.25 30 15C30 17.75 32.25 20 35 20C37.75 20 40 17.75 40 15C40 12.25 37.75 10 35 10 Z M 35 12C36.667969 12 38 13.332031 38 15C38 16.667969 36.667969 18 35 18C33.332031 18 32 16.667969 32 15C32 13.332031 33.332031 12 35 12 Z M 13.53125 20L13.40625 20.84375L12.90625 24.09375C12.363281 24.265625 11.839844 24.515625 11.34375 24.78125L7.90625 22.28125L4.40625 25.78125L4.875 26.46875L6.78125 29.21875C6.511719 29.753906 6.273438 30.289063 6.09375 30.8125L2.8125 31.40625L2 31.5625L2 36.4375L2.8125 36.59375L6.09375 37.1875C6.269531 37.734375 6.511719 38.246094 6.78125 38.75L4.8125 41.40625L4.28125 42.09375L7.78125 45.59375L8.46875 45.125L11.21875 43.21875C11.753906 43.488281 12.289063 43.726563 12.8125 43.90625L13.3125 47.15625L13.4375 48L18.34375 48L18.46875 47.1875L19.09375 43.90625C19.636719 43.734375 20.160156 43.484375 20.65625 43.21875L24.09375 45.71875L27.59375 42.21875L27.125 41.53125L25.125 38.75C25.386719 38.222656 25.636719 37.703125 25.8125 37.1875L29.1875 36.59375L30 36.4375L30 31.53125L25.78125 30.90625C25.609375 30.367188 25.390625 29.839844 25.125 29.34375L27.125 26.59375L27.59375 25.90625L27.03125 25.3125L24.71875 22.90625L24.125 22.28125L23.40625 22.78125L20.65625 24.78125C20.128906 24.519531 19.609375 24.269531 19.09375 24.09375L18.59375 20.84375L18.46875 20 Z M 15.25 22L16.75 22L17.3125 25.5625L17.875 25.75C18.773438 26.050781 19.613281 26.332031 20.28125 26.75L20.84375 27.09375L21.375 26.71875L23.875 24.90625L25 26.09375L23.1875 28.625L22.78125 29.15625L23.15625 29.71875C23.605469 30.4375 23.957031 31.269531 24.125 32.03125L24.28125 32.6875L24.9375 32.78125L28 33.25L28 34.78125L24.9375 35.3125L24.34375 35.40625L24.15625 35.96875C23.855469 36.867188 23.574219 37.707031 23.15625 38.375L22.78125 38.9375L23.1875 39.46875L25 42L23.875 43.09375L21.375 41.28125L20.84375 40.90625L20.28125 41.25C19.5625 41.699219 18.730469 42.050781 17.96875 42.21875L17.34375 42.375L17.21875 43.03125L16.6875 46L15.15625 46L14.59375 42.4375L14.03125 42.25C13.132813 41.949219 12.292969 41.667969 11.625 41.25L11.0625 40.90625L10.53125 41.28125L8 43L6.90625 41.90625L8.6875 39.5L9.125 38.9375L8.75 38.375C8.300781 37.65625 7.949219 36.855469 7.78125 36.09375L7.625 35.4375L6.96875 35.3125L4 34.78125L4 33.21875L6.96875 32.6875L7.5625 32.5625L7.75 32.03125C8.050781 31.132813 8.332031 30.292969 8.75 29.625L9.09375 29.0625L8.71875 28.53125L7 26L8.125 24.90625L10.625 26.71875L11.15625 27.09375L11.71875 26.75C12.4375 26.300781 13.269531 25.949219 14.03125 25.78125L14.6875 25.625L14.78125 24.96875 Z M 16 29C13.253906 29 11 31.253906 11 34C11 36.746094 13.253906 39 16 39C18.746094 39 21 36.746094 21 34C21 31.253906 18.746094 29 16 29 Z M 16 31C17.65625 31 19 32.34375 19 34C19 35.65625 17.65625 37 16 37C14.34375 37 13 35.65625 13 34C13 32.34375 14.34375 31 16 31Z" fill="#1F4183" />
</svg>